# xmcd
#
# Track frame offsets: 
#        150
#        13961
#        32488
#        47696
#        63593
#        90700
#        119702
#        144331
#        171781
#
# Disc length: 2676 seconds
#
# Revision: 0
# Processed by: cddbd v1.5.2PL0 Copyright (c) Steve Scherf et al.
# Submitted via: ExactAudioCopy v0.95b4
#
DISCID=7a0a7209
DTITLE=Sidney - Nobody move!
DYEAR=1900
DGENRE=Dance Hall
TTITLE0=Radio Edit
TTITLE1=Rocco vs. Bass-T Babes RMX Edition
TTITLE2=The real booty babes rmx edit
TTITLE3=pulsedriver rmx edit
TTITLE4=original club mix
TTITLE5=rocco vs bass-t rmx
TTITLE6=the real booty babes rmx
TTITLE7=pulsedriver rmx
TTITLE8=sidneys ruff mix
EXTD=
EXTT0=
EXTT1=
EXTT2=
EXTT3=
EXTT4=
EXTT5=
EXTT6=
EXTT7=
EXTT8=
PLAYORDER=
